<?xml version="1.0" encoding="UTF-8"?>
<!DOCTYPE svg PUBLIC "-//W3C//DTD SVG 1.1//EN" "http://www.w3.org/Graphics/SVG/1.1/DTD/svg11.dtd">
<svg version="1.2" width="361.24mm" height="361.24mm" viewBox="0 0 36124 36124" preserveAspectRatio="xMidYMid" fill-rule="evenodd" stroke-width="28.222" stroke-linejoin="round" xmlns="http://www.w3.org/2000/svg" xmlns:ooo="http://xml.openoffice.org/svg/export" xmlns:xlink="http://www.w3.org/1999/xlink" xmlns:presentation="http://sun.com/xmlns/staroffice/presentation" xmlns:smil="http://www.w3.org/2001/SMIL20/" xmlns:anim="urn:oasis:names:tc:opendocument:xmlns:animation:1.0" xml:space="preserve">
 <defs class="ClipPathGroup">
  <clipPath id="presentation_clip_path" clipPathUnits="userSpaceOnUse">
   <rect x="0" y="0" width="36124" height="36124"/>
  </clipPath>
  <clipPath id="presentation_clip_path_shrink" clipPathUnits="userSpaceOnUse">
   <rect x="36" y="36" width="36052" height="36052"/>
  </clipPath>
 </defs>
 <defs class="TextShapeIndex">
  <g ooo:slide="id1" ooo:id-list="id3 id4 id5"/>
 </defs>
 <defs class="EmbeddedBulletChars">
  <g id="bullet-char-template-57356" transform="scale(0.00048828125,-0.00048828125)">
   <path d="M 580,1141 L 1163,571 580,0 -4,571 580,1141 Z"/>
  </g>
  <g id="bullet-char-template-57354" transform="scale(0.00048828125,-0.00048828125)">
   <path d="M 8,1128 L 1137,1128 1137,0 8,0 8,1128 Z"/>
  </g>
  <g id="bullet-char-template-10146" transform="scale(0.00048828125,-0.00048828125)">
   <path d="M 174,0 L 602,739 174,1481 1456,739 174,0 Z M 1358,739 L 309,1346 659,739 1358,739 Z"/>
  </g>
  <g id="bullet-char-template-10132" transform="scale(0.00048828125,-0.00048828125)">
   <path d="M 2015,739 L 1276,0 717,0 1260,543 174,543 174,936 1260,936 717,1481 1274,1481 2015,739 Z"/>
  </g>
  <g id="bullet-char-template-10007" transform="scale(0.00048828125,-0.00048828125)">
   <path d="M 0,-2 C -7,14 -16,27 -25,37 L 356,567 C 262,823 215,952 215,954 215,979 228,992 255,992 264,992 276,990 289,987 310,991 331,999 354,1012 L 381,999 492,748 772,1049 836,1024 860,1049 C 881,1039 901,1025 922,1006 886,937 835,863 770,784 769,783 710,716 594,584 L 774,223 C 774,196 753,168 711,139 L 727,119 C 717,90 699,76 672,76 641,76 570,178 457,381 L 164,-76 C 142,-110 111,-127 72,-127 30,-127 9,-110 8,-76 1,-67 -2,-52 -2,-32 -2,-23 -1,-13 0,-2 Z"/>
  </g>
  <g id="bullet-char-template-10004" transform="scale(0.00048828125,-0.00048828125)">
   <path d="M 285,-33 C 182,-33 111,30 74,156 52,228 41,333 41,471 41,549 55,616 82,672 116,743 169,778 240,778 293,778 328,747 346,684 L 369,508 C 377,444 397,411 428,410 L 1163,1116 C 1174,1127 1196,1133 1229,1133 1271,1133 1292,1118 1292,1087 L 1292,965 C 1292,929 1282,901 1262,881 L 442,47 C 390,-6 338,-33 285,-33 Z"/>
  </g>
  <g id="bullet-char-template-9679" transform="scale(0.00048828125,-0.00048828125)">
   <path d="M 813,0 C 632,0 489,54 383,161 276,268 223,411 223,592 223,773 276,916 383,1023 489,1130 632,1184 813,1184 992,1184 1136,1130 1245,1023 1353,916 1407,772 1407,592 1407,412 1353,268 1245,161 1136,54 992,0 813,0 Z"/>
  </g>
  <g id="bullet-char-template-8226" transform="scale(0.00048828125,-0.00048828125)">
   <path d="M 346,457 C 273,457 209,483 155,535 101,586 74,649 74,723 74,796 101,859 155,911 209,963 273,989 346,989 419,989 480,963 531,910 582,859 608,796 608,723 608,648 583,586 532,535 482,483 420,457 346,457 Z"/>
  </g>
  <g id="bullet-char-template-8211" transform="scale(0.00048828125,-0.00048828125)">
   <path d="M -4,459 L 1135,459 1135,606 -4,606 -4,459 Z"/>
  </g>
  <g id="bullet-char-template-61548" transform="scale(0.00048828125,-0.00048828125)">
   <path d="M 173,740 C 173,903 231,1043 346,1159 462,1274 601,1332 765,1332 928,1332 1067,1274 1183,1159 1299,1043 1357,903 1357,740 1357,577 1299,437 1183,322 1067,206 928,148 765,148 601,148 462,206 346,322 231,437 173,577 173,740 Z"/>
  </g>
 </defs>
 <defs class="TextEmbeddedBitmaps"/>
 <g>
  <g id="id2" class="Master_Slide">
   <g id="bg-id2" class="Background"/>
   <g id="bo-id2" class="BackgroundObjects"/>
  </g>
 </g>
 <g class="SlideGroup">
  <g>
   <g id="container-id1">
    <g id="id1" class="Slide" clip-path="url(#presentation_clip_path)">
     <g class="Page">
      <g class="com.sun.star.drawing.ClosedBezierShape">
       <g id="id3">
        <rect class="BoundingBox" stroke="none" fill="none" x="0" y="0" width="36126" height="35237"/>
        <path fill="rgb(0,0,0)" stroke="none" d="M 18063,0 C 8088,0 0,8088 0,18063 0,26045 5175,32814 12353,35202 13256,35367 13586,34809 13586,34333 13586,33903 13569,32479 13560,30970 8537,32062 7476,28840 7476,28840 6653,26755 5470,26199 5470,26199 3829,25079 5595,25101 5595,25101 7408,25227 8363,26962 8363,26962 9975,29722 12592,28924 13620,28461 13784,27297 14251,26499 14766,26049 10757,25593 6539,24042 6539,17121 6539,15148 7243,13538 8396,12274 8212,11815 7590,9977 8575,7491 8575,7491 10090,7006 13543,9343 14982,8941 16527,8743 18063,8736 19597,8743 21143,8943 22585,9346 26031,7006 27548,7493 27548,7493 28536,9982 27914,11817 27729,12274 28887,13538 29586,15148 29586,17121 29586,24060 25361,25588 21337,26036 21988,26596 22563,27694 22563,29378 22563,31793 22539,33740 22539,34335 22539,34816 22867,35378 23782,35202 30955,32809 36125,26040 36125,18063 36125,8088 28038,0 18063,0 Z"/>
       </g>
      </g>
      <g class="Group">
       <g class="com.sun.star.drawing.ClosedBezierShape">
        <g id="id4">
         <rect class="BoundingBox" stroke="none" fill="none" x="9800" y="10500" width="17002" height="12751"/>
         <path fill="rgb(0,0,0)" stroke="none" d="M 25738,12624 L 23864,12624 C 23057,12624 22322,12170 21962,11450 L 21780,11086 C 21600,10726 21233,10500 20830,10500 L 15768,10500 C 15366,10500 14998,10726 14818,11088 L 14638,11450 C 14276,12170 13541,12624 12737,12624 L 10862,12624 C 10276,12624 9800,13100 9800,13688 L 9800,22188 C 9800,22774 10276,23250 10862,23250 L 25738,23250 C 26324,23250 26800,22774 26800,22188 L 26800,13688 C 26800,13100 26324,12624 25738,12624 Z M 18300,22188 C 15952,22188 14050,20285 14050,17938 14050,15591 15953,13688 18300,13688 20648,13688 22550,15591 22550,17938 22550,20285 20647,22188 18300,22188 Z"/>
        </g>
       </g>
       <g class="com.sun.star.drawing.ClosedBezierShape">
        <g id="id5">
         <rect class="BoundingBox" stroke="none" fill="none" x="16174" y="15812" width="4252" height="4251"/>
         <path fill="rgb(0,0,0)" stroke="none" d="M 20424,17938 C 20424,18327 20335,18661 20139,19000 19944,19339 19700,19581 19362,19777 19024,19973 18692,20062 18300,20062 17909,20062 17577,19973 17238,19777 16899,19581 16655,19339 16459,19000 16263,18661 16174,18328 16174,17938 16174,17547 16263,17213 16459,16874 16655,16535 16899,16292 17238,16097 17577,15902 17909,15812 18300,15812 18692,15812 19024,15902 19362,16097 19700,16292 19944,16535 20139,16874 20335,17213 20424,17547 20424,17938 Z"/>
        </g>
       </g>
      </g>
     </g>
    </g>
   </g>
  </g>
 </g>
</svg>